<svg width="300" height="48" viewBox="0 0 300 48" fill="none" xmlns="http://www.w3.org/2000/svg">
<rect width="300" height="48" fill="#0094FF"/>
<path d="M22.0156 34L16.4375 14.2031H20.2656L23.8477 28.7773H24.0391L27.8398 14.2031H31.3398L35.168 28.8047H35.332L38.9141 14.2031H42.7422L37.1641 34H33.6367L29.6719 20.082H29.5352L25.543 34H22.0156ZM45.0117 34V14.2031H57.8906V17.1836H48.5664V22.5977H57.207V25.5781H48.5664V30.9922H57.9453V34H45.0117ZM61.3086 34V14.2031H74.1875V17.1836H64.8633V22.5977H73.5039V25.5781H64.8633V30.9922H74.2422V34H61.3086ZM77.6055 34V14.2031H81.1602V23.3086H81.4336L89.1719 14.2031H93.5195L85.8633 23.0898L93.6016 34H89.3086L83.375 25.4961L81.1602 28.0938V34H77.6055ZM102.242 34V31.4297L109.242 24.6758C111.238 22.6797 112.277 21.5039 112.277 19.8359C112.277 17.9902 110.814 16.8281 108.887 16.8281C106.85 16.8281 105.537 18.0996 105.551 20.1094H102.16C102.146 16.3633 104.963 13.9297 108.914 13.9297C112.961 13.9297 115.682 16.3496 115.695 19.6719C115.682 21.9004 114.615 23.7051 110.719 27.3828L107.191 30.8828V31.0195H115.996V34H102.242ZM121.301 31.5391C120.125 31.5391 119.154 30.582 119.168 29.4062C119.154 28.2578 120.125 27.3145 121.301 27.3008C122.436 27.3145 123.406 28.2578 123.406 29.4062C123.406 30.582 122.436 31.5391 121.301 31.5391ZM119.168 18.7969C119.154 17.6484 120.125 16.7051 121.301 16.6914C122.436 16.7051 123.406 17.6484 123.406 18.7969C123.406 19.9727 122.436 20.9297 121.301 20.9297C120.125 20.9297 119.154 19.9727 119.168 18.7969ZM153.895 11.7148V36.4336H150.941V11.7148H153.895ZM133.387 30.7734V14.6133H142.793V17.0469H136.367V28.2305C139.279 28.2168 141.385 28.0801 143.805 27.5742L144.051 30.0625C141.262 30.6367 138.787 30.7598 135.055 30.7734H133.387ZM141.098 23.3633V20.875H145.855V12.207H148.699V35.2305H145.855V23.3633H141.098ZM177.301 11.7148V25.6328H174.293V11.7148H177.301ZM158.215 24.2109V13.1641H161.277V21.6406C165.146 21.6133 168.469 21.3262 171.969 20.5742L172.352 23.0898C168.414 23.8965 164.695 24.1836 160.32 24.2109H158.215ZM160.977 36.1055V26.6992H177.301V36.1055H160.977ZM163.957 33.6992H174.348V29.0781H163.957V33.6992ZM194.391 34.2734C190.344 34.2871 187.855 31.8945 187.855 28.75C187.855 26.4121 189.359 24.9902 191.574 23.459C190.439 22.0508 189.551 20.6016 189.551 18.8516C189.551 16.0352 191.602 13.957 194.719 13.957C197.836 13.957 199.764 16.0215 199.75 18.4414C199.764 20.3281 198.779 21.7637 197.125 22.9531L195.867 23.8828L199.49 28.1348C200.01 27.1504 200.324 25.9883 200.324 24.6758H203.332C203.318 27.3965 202.566 29.3242 201.609 30.6094L204.508 34H200.734L199.463 32.5508C198.055 33.7402 196.127 34.2871 194.391 34.2734ZM191.273 28.5859C191.273 30.1582 192.545 31.416 194.5 31.4297C195.553 31.4297 196.633 31.0469 197.562 30.377L193.447 25.6465L193.133 25.8789C191.793 26.8633 191.273 27.9023 191.273 28.5859ZM192.641 18.9062C192.654 19.8086 193.256 20.7246 194.076 21.75L195.211 20.9844C196.25 20.3145 196.797 19.6035 196.797 18.6055C196.797 17.7441 196.031 16.8145 194.773 16.8281C193.516 16.8145 192.654 17.8262 192.641 18.9062ZM231.578 11.7148V21.9141H235.051V24.457H231.578V36.4336H228.516V11.7148H231.578ZM211.727 29.5703C213.6 29.5703 215.773 29.5703 218.043 29.5156V27.2051C215.35 26.7402 213.6 25.0586 213.613 22.7344C213.6 19.9453 216.047 18.0996 219.602 18.0859C223.115 18.0996 225.59 19.9453 225.617 22.7344C225.59 25.0723 223.799 26.7539 221.105 27.2051V29.4062C223.184 29.2969 225.262 29.1328 227.203 28.8594L227.395 31.0742C222.09 32.0449 216.375 32.0859 212.164 32.0859L211.727 29.5703ZM212.191 16.9648V14.5586H218.043V11.8242H221.105V14.5586H226.93V16.9648H212.191ZM216.484 22.7344C216.471 24.1562 217.729 24.9902 219.602 24.9766C221.447 24.9902 222.691 24.1562 222.691 22.7344C222.691 21.2988 221.447 20.4238 219.602 20.4102C217.729 20.4238 216.471 21.2988 216.484 22.7344ZM256.789 11.7148V36.4609H253.727V11.7148H256.789ZM237.02 22.2422C237.006 16.9102 239.727 13.5195 243.473 13.5195C247.178 13.5195 249.912 16.9102 249.926 22.2422C249.912 27.6152 247.178 30.9922 243.473 30.9922C239.727 30.9922 237.006 27.6152 237.02 22.2422ZM239.945 22.2422C239.945 26.043 241.381 28.2441 243.473 28.2578C245.551 28.2441 246.973 26.043 246.973 22.2422C246.973 18.4688 245.551 16.2539 243.473 16.2539C241.381 16.2539 239.945 18.4688 239.945 22.2422ZM280.523 24.6758V27.082H263.188V13.6562H280.305V16.1172H266.277V19.0977H279.73V21.4766H266.277V24.6758H280.523ZM260.426 33.4258V30.9375H283.012V33.4258H260.426Z" fill="white"/>
</svg>
