<svg width="651" height="94" viewBox="0 0 651 94" fill="none" xmlns="http://www.w3.org/2000/svg">
<path d="M26 1.52V0.519999H25V1.52H26ZM58.16 1.52H59.16V0.519999H58.16V1.52ZM0.32 83.6L-0.608751 83.2293L-0.885873 83.9236L-0.29839 84.3859L0.32 83.6ZM11.48 55.64L12.412 55.2776L11.4921 52.9121L10.5512 55.2693L11.48 55.64ZM26 2.52L58.16 2.52V0.519999L26 0.519999V2.52ZM57.16 1.52L57.16 62.48H59.16L59.16 1.52H57.16ZM57.16 62.48C57.16 79.9355 44.88 92.44 27.32 92.44V94.44C46 94.44 59.16 81.0245 59.16 62.48H57.16ZM27.32 92.44C18.2166 92.44 8.10924 88.4568 0.93839 82.8141L-0.29839 84.3859C7.17076 90.2632 17.7034 94.44 27.32 94.44V92.44ZM1.24875 83.9707L12.4088 56.0107L10.5512 55.2693L-0.608751 83.2293L1.24875 83.9707ZM10.548 56.0024C11.3736 58.1256 12.3194 60.6322 13.7471 62.5893C15.2105 64.5954 17.2511 66.12 20.24 66.12V64.12C18.0689 64.12 16.5695 63.0646 15.3629 61.4106C14.1206 59.7078 13.2664 57.4744 12.412 55.2776L10.548 56.0024ZM20.24 66.12C21.7636 66.12 23.0074 65.6818 23.9876 64.907C24.9536 64.1434 25.5973 63.1059 26.0304 62.0065C26.8855 59.8358 27 57.2084 27 55.28H25C25 57.1916 24.8745 59.4842 24.1696 61.2735C23.8227 62.1541 23.3564 62.8566 22.7474 63.338C22.1526 63.8082 21.3564 64.12 20.24 64.12V66.12ZM27 55.28L27 1.52H25L25 55.28H27ZM122.156 1.08C149.184 1.08 171.196 19.208 171.196 47H173.196C173.196 17.912 150.087 -0.920004 122.156 -0.920004V1.08ZM171.196 47C171.196 61.2429 165.702 72.576 156.865 80.3596C148.014 88.1552 135.75 92.44 122.156 92.44V94.44C136.161 94.44 148.917 90.0248 158.187 81.8604C167.47 73.684 173.196 61.7971 173.196 47H171.196ZM122.156 92.44C108.561 92.44 96.2973 88.1552 87.4466 80.3596C78.6096 72.576 73.1156 61.2429 73.1156 47H71.1156C71.1156 61.7971 76.8417 73.684 86.1247 81.8604C95.394 90.0248 108.15 94.44 122.156 94.44V92.44ZM73.1156 47C73.1156 19.208 95.1271 1.08 122.156 1.08V-0.920004C94.2242 -0.920004 71.1156 17.912 71.1156 47H73.1156ZM122.156 28.84C111.078 28.84 104.236 37.4172 104.236 47.48H106.236C106.236 38.3427 112.353 30.84 122.156 30.84V28.84ZM104.236 47.48C104.236 52.8691 106.057 57.4799 109.245 60.7483C112.435 64.0183 116.931 65.88 122.156 65.88V63.88C117.42 63.88 113.457 62.2017 110.676 59.3517C107.895 56.5001 106.236 52.4109 106.236 47.48H104.236ZM122.156 65.88C127.38 65.88 131.877 64.0183 135.066 60.7483C138.255 57.4799 140.076 52.8691 140.076 47.48H138.076C138.076 52.4109 136.417 56.5001 133.635 59.3517C130.855 62.2017 126.891 63.88 122.156 63.88V65.88ZM140.076 47.48C140.076 37.4172 133.233 28.84 122.156 28.84V30.84C131.958 30.84 138.076 38.3427 138.076 47.48H140.076ZM236.671 1.52V0.519999H235.671V1.52H236.671ZM269.551 1.52H270.551V0.519999L269.551 0.519999V1.52ZM185.791 1.52V0.519999H184.791V1.52H185.791ZM218.671 1.52H219.671V0.519999H218.671V1.52ZM236.671 2.52L269.551 2.52V0.519999L236.671 0.519999V2.52ZM268.551 1.52V55.04H270.551V1.52H268.551ZM268.551 55.04C268.551 68.0211 264.489 77.3151 257.453 83.3827C250.392 89.472 240.19 92.44 227.671 92.44V94.44C240.473 94.44 251.21 91.408 258.759 84.8973C266.334 78.3649 270.551 68.4589 270.551 55.04H268.551ZM227.671 92.44C215.153 92.44 204.95 89.472 197.889 83.3827C190.854 77.3151 186.791 68.0211 186.791 55.04H184.791C184.791 68.4589 189.009 78.3649 196.583 84.8973C204.132 91.408 214.87 94.44 227.671 94.44V92.44ZM186.791 55.04V1.52H184.791V55.04H186.791ZM185.791 2.52L218.671 2.52V0.519999L185.791 0.519999V2.52ZM217.671 1.52V51.92H219.671V1.52H217.671ZM217.671 51.92C217.671 55.4 217.713 58.9752 218.982 61.6621C219.637 63.0489 220.624 64.219 222.084 65.0289C223.53 65.8305 225.368 66.24 227.671 66.24V64.24C225.594 64.24 224.118 63.8695 223.054 63.2798C222.006 62.6985 221.29 61.8661 220.79 60.8079C219.75 58.6048 219.671 55.52 219.671 51.92H217.671ZM227.671 66.24C229.974 66.24 231.813 65.8305 233.258 65.0289C234.719 64.219 235.705 63.0489 236.36 61.6621C237.63 58.9752 237.671 55.4 237.671 51.92H235.671C235.671 55.52 235.593 58.6048 234.552 60.8079C234.052 61.8661 233.337 62.6985 232.288 63.2798C231.225 63.8695 229.748 64.24 227.671 64.24V66.24ZM237.671 51.92V1.52H235.671V51.92H237.671ZM286.523 92H285.523V93H286.523V92ZM286.523 1.52V0.519999L285.523 0.519999V1.52H286.523ZM346.403 56.48L346.087 55.5313L345.403 55.7592V56.48H346.403ZM346.403 57.2H345.403V57.686L345.785 57.9863L346.403 57.2ZM351.923 62.6L352.754 62.0437L352.749 62.0367L351.923 62.6ZM371.603 92V93H373.476L372.434 91.4437L371.603 92ZM333.683 92L332.787 92.4443L333.062 93H333.683V92ZM319.283 62.96L320.179 62.5157L319.903 61.96H319.283V62.96ZM318.683 62.96V61.96H317.683V62.96H318.683ZM318.683 92V93H319.683V92H318.683ZM318.683 26.24V25.24H317.683V26.24H318.683ZM318.683 41.6H317.683V42.6H318.683V41.6ZM287.523 92V1.52H285.523V92H287.523ZM286.523 2.52L326.243 2.52V0.519999L286.523 0.519999V2.52ZM326.243 2.52C336.324 2.52 345.507 4.65832 352.144 9.49797C358.731 14.3019 362.923 21.848 362.923 32.96H364.923C364.923 21.272 360.475 13.0981 353.322 7.88202C346.218 2.70168 336.561 0.519999 326.243 0.519999V2.52ZM362.923 32.96C362.923 39.6788 361.626 44.2872 358.964 47.7056C356.292 51.1372 352.132 53.5161 346.087 55.5313L346.719 57.4287C352.914 55.3638 357.514 52.8228 360.542 48.9344C363.58 45.0328 364.923 39.9212 364.923 32.96H362.923ZM345.403 56.48V57.2H347.403V56.48H345.403ZM345.785 57.9863C347.497 59.3317 349.401 60.6758 351.097 63.1633L352.749 62.0367C350.845 59.2442 348.668 57.7083 347.021 56.4137L345.785 57.9863ZM351.092 63.1563L370.772 92.5563L372.434 91.4437L352.754 62.0437L351.092 63.1563ZM371.603 91H333.683V93H371.603V91ZM334.579 91.5557L320.179 62.5157L318.387 63.4043L332.787 92.4443L334.579 91.5557ZM319.283 61.96H318.683V63.96H319.283V61.96ZM317.683 62.96V92H319.683V62.96H317.683ZM318.683 91L286.523 91V93L318.683 93V91ZM317.683 26.24V41.6H319.683V26.24H317.683ZM318.683 42.6H320.963V40.6H318.683V42.6ZM320.963 42.6C323.667 42.6 326.588 42.3997 328.848 41.2278C330.004 40.6285 331.001 39.7691 331.701 38.556C332.398 37.3481 332.763 35.8541 332.763 34.04H330.763C330.763 35.5859 330.453 36.7169 329.969 37.5565C329.487 38.3909 328.797 39.0015 327.928 39.4522C326.138 40.3803 323.658 40.6 320.963 40.6V42.6ZM332.763 34.04C332.763 32.1854 332.435 30.6597 331.793 29.424C331.146 28.1774 330.208 27.2832 329.085 26.6568C326.9 25.437 324.018 25.24 321.203 25.24V27.24C324.028 27.24 326.426 27.463 328.11 28.4032C328.923 28.8568 329.567 29.4776 330.019 30.346C330.475 31.2253 330.763 32.4146 330.763 34.04H332.763ZM321.203 25.24H318.683V27.24H321.203V25.24ZM379.263 92H378.263V93H379.263V92ZM379.263 1.52V0.519999H378.263V1.52H379.263ZM410.823 1.52L411.685 1.0128L411.395 0.519999H410.823V1.52ZM440.343 51.68L439.481 52.1872L439.771 52.68H440.343V51.68ZM441.303 51.68V52.68H442.493L442.288 51.508L441.303 51.68ZM438.543 1.52V0.519999H437.543V1.52L438.543 1.52ZM469.983 1.52H470.983V0.519999H469.983V1.52ZM469.983 92V93H470.983V92H469.983ZM438.543 92L437.689 92.5199L437.981 93H438.543V92ZM409.623 44.48L410.477 43.9601L410.185 43.48H409.623V44.48ZM408.663 44.48V43.48H407.475L407.678 44.6505L408.663 44.48ZM410.703 92V93H411.703V92H410.703ZM380.263 92V1.52H378.263V92H380.263ZM379.263 2.52L410.823 2.52V0.519999L379.263 0.519999V2.52ZM409.961 2.0272L439.481 52.1872L441.205 51.1728L411.685 1.0128L409.961 2.0272ZM440.343 52.68H441.303V50.68H440.343V52.68ZM442.288 51.508C440.964 43.9221 439.543 36.2154 439.543 28.64H437.543C437.543 36.4246 439.003 44.3179 440.318 51.852L442.288 51.508ZM439.543 28.64V1.52L437.543 1.52V28.64H439.543ZM438.543 2.52L469.983 2.52V0.519999L438.543 0.519999V2.52ZM468.983 1.52V92H470.983V1.52H468.983ZM469.983 91H438.543V93H469.983V91ZM439.397 91.4801L410.477 43.9601L408.769 44.9999L437.689 92.5199L439.397 91.4801ZM409.623 43.48H408.663V45.48H409.623V43.48ZM407.678 44.6505C408.759 50.8967 409.703 56.6972 409.703 62.6H411.703C411.703 56.5028 410.727 50.5433 409.648 44.3095L407.678 44.6505ZM409.703 62.6V92H411.703V62.6H409.703ZM410.703 91L379.263 91V93L410.703 93V91ZM486.312 92H485.312V93H486.312V92ZM486.312 1.52V0.519999H485.312V1.52H486.312ZM547.152 1.52H548.152V0.519999H547.152V1.52ZM547.152 26.24V27.24H548.152V26.24H547.152ZM519.432 26.24V25.24H518.432V26.24H519.432ZM519.432 34.88H518.432V35.88H519.432V34.88ZM544.752 34.88H545.752V33.88H544.752V34.88ZM544.752 58.4V59.4H545.752V58.4H544.752ZM519.432 58.4V57.4H518.432V58.4H519.432ZM519.432 67.28H518.432V68.28H519.432V67.28ZM548.112 67.28H549.112V66.28H548.112V67.28ZM548.112 92V93H549.112V92H548.112ZM487.312 92V1.52H485.312V92H487.312ZM486.312 2.52L547.152 2.52V0.519999L486.312 0.519999V2.52ZM546.152 1.52V26.24H548.152V1.52H546.152ZM547.152 25.24H519.432V27.24H547.152V25.24ZM518.432 26.24V34.88H520.432V26.24H518.432ZM519.432 35.88H544.752V33.88H519.432V35.88ZM543.752 34.88V58.4H545.752V34.88H543.752ZM544.752 57.4H519.432V59.4H544.752V57.4ZM518.432 58.4V67.28H520.432V58.4H518.432ZM519.432 68.28H548.112V66.28H519.432V68.28ZM547.112 67.28V92H549.112V67.28H547.112ZM548.112 91L486.312 91V93L548.112 93V91ZM555.674 1.52V0.519999H553.888L554.822 2.04265L555.674 1.52ZM592.874 1.52L593.794 1.12777L593.535 0.519999H592.874V1.52ZM602.954 25.16L602.035 25.5522L602.294 26.16H602.954V25.16ZM603.914 25.16V26.16H604.635L604.863 25.4762L603.914 25.16ZM606.914 16.64L607.831 17.0387L607.834 17.0339L606.914 16.64ZM613.394 1.52V0.519999H612.735L612.475 1.12608L613.394 1.52ZM650.354 1.52L651.211 2.03538L652.123 0.519999L650.354 0.519999V1.52ZM619.394 53L618.537 52.4846L618.394 52.7225V53H619.394ZM619.394 92V93H620.394V92H619.394ZM587.234 92H586.234V93H587.234V92ZM587.234 53H588.234V52.7179L588.087 52.4773L587.234 53ZM555.674 2.52L592.874 2.52V0.519999L555.674 0.519999V2.52ZM591.955 1.91223L602.035 25.5522L603.874 24.7678L593.794 1.12777L591.955 1.91223ZM602.954 26.16H603.914V24.16H602.954V26.16ZM604.863 25.4762C605.839 22.5481 606.655 19.7448 607.831 17.0387L605.997 16.2413C604.774 19.0552 603.91 22.0119 602.966 24.8438L604.863 25.4762ZM607.834 17.0339L614.314 1.91392L612.475 1.12608L605.995 16.2461L607.834 17.0339ZM613.394 2.52L650.354 2.52V0.519999L613.394 0.519999V2.52ZM649.497 1.00462L618.537 52.4846L620.251 53.5154L651.211 2.03538L649.497 1.00462ZM618.394 53V92H620.394V53H618.394ZM619.394 91H587.234V93H619.394V91ZM588.234 92V53H586.234V92H588.234ZM588.087 52.4773L556.527 0.997344L554.822 2.04265L586.382 53.5227L588.087 52.4773Z" fill="white"/>
</svg>
