<svg width="443" height="68" viewBox="0 0 443 68" fill="none" xmlns="http://www.w3.org/2000/svg">
<path d="M268.453 0.714844V13.2383H265.391V0.714844H268.453ZM248.246 11.2695C254.385 10.0664 257.256 7.48242 257.611 4.1875H249.559V1.72656H260.988C260.975 8.35742 256.969 12.1172 249.312 13.7305L248.246 11.2695ZM252.047 16.6289V14.25H268.453V20.7031H255.164V22.8086H269.191V25.1875H252.102V18.4883H265.391V16.6289H252.047ZM292.242 2.98438V5.36328C292.215 8.43945 292.215 11.8711 291.258 17.0391L288.195 16.7109C289.166 11.8984 289.166 8.38477 289.18 5.41797H274.414V2.98438H292.242ZM272.062 22.2344V19.7461H280.375V11.1602H283.383V19.7461H294.594V22.2344H272.062ZM323.441 0.742188V18.6797H320.379V0.742188H323.441ZM303.289 13.6484C308.963 11.9805 312.381 8.89062 312.941 5.0625H304.656V2.57422H316.25C316.223 9.16406 311.875 13.8809 304.465 16.082L303.289 13.6484ZM307.062 24.9414V17.1484H310.125V22.4805H324.016V24.9414H307.062ZM340.504 2.51953C342.732 2.51953 344.578 3.76367 345.686 5.9375H351.469V0.714844H354.477V25.4609H351.469V16.1094H345.904C344.824 18.5703 342.883 19.9922 340.504 19.9922C336.785 19.9922 334.146 16.6152 334.16 11.2422C334.146 5.91016 336.785 2.51953 340.504 2.51953ZM337.086 11.2422C337.072 15.043 338.467 17.2441 340.504 17.2578C342.555 17.2441 343.936 15.043 343.949 11.2422C343.936 7.46875 342.555 5.25391 340.504 5.25391C338.467 5.25391 337.072 7.46875 337.086 11.2422ZM346.547 8.42578C346.725 9.28711 346.82 10.2305 346.82 11.2422C346.82 12.0898 346.752 12.8965 346.615 13.6484H351.469V8.42578H346.547ZM380.508 13.293V15.6992H357.922V13.293H380.508ZM360.711 3.61328V1.23438H377.719V7.57812H363.801V9.35547H378.211V11.6797H360.793V5.36328H374.684V3.61328H360.711ZM360.875 25.1328V17.4766H377.801V25.1328H360.875ZM363.855 22.6719H374.793V19.8828H363.855V22.6719ZM398.145 6.64844C398.117 11.1875 400.51 15.7266 404.516 17.4492L402.711 19.8828C399.867 18.5703 397.789 15.959 396.641 12.7324C395.506 16.2051 393.373 19.0488 390.379 20.457L388.52 17.9141C392.635 16.1367 395.041 11.4199 395.055 6.64844V2.71094H398.145V6.64844ZM406.293 25.4609V0.714844H409.355V25.4609H406.293ZM421.852 5.00781C421.852 8.05664 423.807 11.0508 427.703 12.3359L426.172 14.6875C423.396 13.7578 421.441 11.9121 420.361 9.60156C419.268 12.1309 417.217 14.1406 414.332 15.125L412.719 12.7734C416.697 11.4473 418.789 8.24805 418.789 5.00781V4.70703H413.566V2.27344H426.992V4.70703H421.852V5.00781ZM416.027 19.1992V16.7656H432.488V25.4336H429.453V19.1992H416.027ZM429.453 15.6172V0.714844H432.488V6.89453H435.934V9.4375H432.488V15.6172H429.453ZM440.199 23.2188C439.023 23.2188 438.053 22.2617 438.066 21.0859C438.053 19.9375 439.023 18.9941 440.199 18.9805C441.334 18.9941 442.305 19.9375 442.305 21.0859C442.305 22.2617 441.334 23.2188 440.199 23.2188ZM22.5234 55.5938V58.0547H-0.0078125V55.5938H9.69922V53.4062C5.17383 53.0781 2.31641 51.2734 2.31641 48.4023C2.31641 45.2988 5.83008 43.3984 11.2305 43.3984C16.6172 43.3984 20.1309 45.2988 20.1445 48.4023C20.1309 51.2734 17.2734 53.0781 12.7617 53.4062V55.5938H22.5234ZM2.78125 66.9414V59.75H5.81641V64.4805H19.9805V66.9414H2.78125ZM5.48828 48.4023C5.46094 50.1113 7.63477 51.0137 11.2305 51C14.8398 51.0137 17 50.1113 17 48.4023C17 46.7754 14.8398 45.8184 11.2305 45.8047C7.63477 45.8184 5.46094 46.7754 5.48828 48.4023ZM43.5508 42.7148V52.2031H47.3516V54.7461H43.5508V67.4609H40.543V42.7148H43.5508ZM25.1758 47.3359V44.875H36.5508V54.1992H28.2383V59.1211C32.1621 59.0938 35.2109 58.9297 38.6562 58.3281L38.9297 60.7891C35.1152 61.4727 31.752 61.6367 27.2539 61.6367H25.2305V51.7656H33.5156V47.3359H25.1758ZM68.9805 42.7422V60.5977H65.918V42.7422H68.9805ZM48.8281 50.5352C48.8281 46.9395 51.7402 44.3691 55.5 44.3555C59.2598 44.3691 62.1582 46.9395 62.1445 50.5352C62.1582 54.1855 59.2598 56.7422 55.5 56.7422C51.7402 56.7422 48.8281 54.1855 48.8281 50.5352ZM51.8086 50.5352C51.7949 52.7227 53.3809 54.0898 55.5 54.0898C57.5645 54.0898 59.1641 52.7227 59.1641 50.5352C59.1641 48.4023 57.5645 47.0078 55.5 47.0078C53.3809 47.0078 51.7949 48.4023 51.8086 50.5352ZM52.6289 66.9414V58.793H55.6914V64.4805H69.6641V66.9414H52.6289ZM92.0039 46.1055C92.0039 49.9199 95.7363 53.7617 100.918 54.6641L99.5508 57.207C95.4082 56.3457 92.0176 53.8301 90.4043 50.5078C88.7773 53.8027 85.3867 56.332 81.2578 57.207L79.918 54.6641C85.0176 53.7344 88.7637 49.9062 88.7773 46.1055V44.2734H92.0039V46.1055ZM79.2344 64.2891V61.7734H101.82V64.2891H79.2344ZM123.531 55.1562V57.5898H116.23V62.1016H126.02V64.5352H103.434V62.1016H113.168V57.5898H106.195V44.5469H123.312V47.0078H109.285V49.7969H122.738V52.2031H109.285V55.1562H123.531ZM134.387 44.5195C137.723 44.5195 140.197 47.3086 140.635 51.8203H145.352V42.7148H148.359V67.4609H145.352V54.2812H140.662C140.334 59.0527 137.818 61.9922 134.387 61.9922C130.668 61.9922 128.029 58.6152 128.043 53.2422C128.029 47.9102 130.668 44.5195 134.387 44.5195ZM130.969 53.2422C130.955 57.043 132.35 59.2441 134.387 59.2578C136.438 59.2441 137.818 57.043 137.832 53.2422C137.818 49.4688 136.438 47.2539 134.387 47.2539C132.35 47.2539 130.955 49.4688 130.969 53.2422ZM177.973 42.7148V49.6602H181.445V52.1758H177.973V60.5977H174.938V42.7148H177.973ZM159.516 56.4141V44.7656H170.59V47.1992H162.523V53.9258C167.172 53.9258 169.756 53.7754 172.695 53.1602L173.023 55.6211C169.783 56.2637 166.912 56.4141 161.512 56.4141H159.516ZM162.141 66.9414V58.7109H165.176V64.4805H178.957V66.9414H162.141ZM205.207 54.8008V57.2344H182.676V54.8008H192.41V52.3398H185.438V43.7266H202.5V46.1328H188.473V49.8789H202.719V52.3398H195.445V54.8008H205.207ZM185.164 61.6094V59.1758H202.5V67.5156H199.492V61.6094H185.164ZM233.398 44.1641V46.4062C233.398 48.9629 233.398 51.8203 232.564 55.8398H236.051V58.3008H226.316V67.3789H223.254V58.3008H213.52V55.8398H229.57C229.912 54.377 230.117 53.0508 230.254 51.834L215.844 52.5586L215.461 49.9609L230.445 49.5234C230.486 48.4844 230.5 47.5137 230.5 46.5977H216.227V44.1641H233.398ZM258.172 43.6992V46.1602H254.781V50.8906H258.035V53.2695H250.488V55.8125H260.25V58.2188H237.719V55.8125H247.426V53.2695H239.879V50.8906H243.133V46.1602H239.742V43.6992H258.172ZM240.508 66.9414V59.9961H243.543V64.4805H257.707V66.9414H240.508ZM246.168 50.8906H251.719V46.1602H246.168V50.8906ZM275.344 65.2734C271.297 65.2871 268.809 62.8945 268.809 59.75C268.809 57.4121 270.312 55.9902 272.527 54.459C271.393 53.0508 270.504 51.6016 270.504 49.8516C270.504 47.0352 272.555 44.957 275.672 44.957C278.789 44.957 280.717 47.0215 280.703 49.4414C280.717 51.3281 279.732 52.7637 278.078 53.9531L276.82 54.8828L280.443 59.1348C280.963 58.1504 281.277 56.9883 281.277 55.6758H284.285C284.271 58.3965 283.52 60.3242 282.562 61.6094L285.461 65H281.688L280.416 63.5508C279.008 64.7402 277.08 65.2871 275.344 65.2734ZM272.227 59.5859C272.227 61.1582 273.498 62.416 275.453 62.4297C276.506 62.4297 277.586 62.0469 278.516 61.377L274.4 56.6465L274.086 56.8789C272.746 57.8633 272.227 58.9023 272.227 59.5859ZM273.594 49.9062C273.607 50.8086 274.209 51.7246 275.029 52.75L276.164 51.9844C277.203 51.3145 277.75 50.6035 277.75 49.6055C277.75 48.7441 276.984 47.8145 275.727 47.8281C274.469 47.8145 273.607 48.8262 273.594 49.9062ZM305.559 45.1211V61.3086H293.855V45.1211H305.559ZM296.836 58.875H302.523V47.5H296.836V58.875ZM309.305 67.4336V42.7148H312.34V52.2031H316.141V54.7734H312.34V67.4336H309.305ZM324.18 43.5078C327.926 43.5215 330.715 45.832 330.742 49.0859C330.715 52.3535 327.926 54.6504 324.18 54.6641C320.406 54.6504 317.617 52.3535 317.617 49.0859C317.617 45.832 320.406 43.5215 324.18 43.5078ZM320.57 49.0859C320.57 51 322.102 52.2031 324.18 52.2031C326.258 52.2031 327.775 51 327.789 49.0859C327.775 47.2129 326.258 46.0098 324.18 46.0234C322.102 46.0098 320.57 47.2129 320.57 49.0859ZM321.363 58.6562V56.2773H337.77V62.7305H324.398V64.7266H338.508V67.1328H321.418V60.4883H334.734V58.6562H321.363ZM334.707 55.2109V42.7148H337.77V55.2109H334.707ZM361.969 42.7148V67.4609H358.961V42.7148H361.969ZM342.719 47.3359V44.875H354.367V54.1445H345.863V59.1211C349.76 59.0938 353.109 58.8887 356.965 58.2461L357.238 60.7344C353.041 61.459 349.35 61.623 344.906 61.6094H342.746V51.7383H351.277V47.3359H342.719ZM374.902 49.7422C374.902 53.7891 377.281 58.0547 381.273 59.7227L379.605 62.1289C376.68 60.8574 374.547 58.2734 373.412 55.1289C372.277 58.5195 370.104 61.3633 367.219 62.7305L365.469 60.3516C369.365 58.5469 371.799 53.9395 371.812 49.7422V47.6641H366.371V45.1484H380.316V47.6641H374.902V49.7422ZM383.078 67.4336V42.7148H386.141V67.4336H383.078ZM417.75 42.7148V67.4336H414.824V42.7148H417.75ZM396.367 49.0859V46.6523H400.852V43.3438H403.887V46.6523H408.316V49.0859H396.367ZM397.051 56.25C397.037 52.791 399.266 50.3848 402.301 50.3711C405.363 50.3848 407.578 52.791 407.578 56.25V56.5508H410.121V53.3242H407.141V50.8359H410.121V43.1797H412.938V66.2852H410.121V58.9844H407.045C406.211 60.9121 404.461 62.1152 402.301 62.1016C399.266 62.1152 397.037 59.6953 397.051 56.25ZM399.703 56.25C399.689 58.2598 400.756 59.5176 402.301 59.5312C403.846 59.5176 404.926 58.2598 404.953 56.25C404.926 54.1992 403.846 52.9824 402.301 52.9688C400.756 52.9824 399.689 54.1992 399.703 56.25ZM431.258 44.4375V46.8711H424.477V49.2773H431.012V51.6016H424.477V54.1992C427.484 54.1719 429.59 54.0488 431.996 53.5977L432.324 56.0586C429.412 56.6055 427.033 56.7012 423.191 56.6875H421.551V44.4375H431.258ZM424.832 61.3359V58.875H441.758V67.4336H438.723V61.3359H424.832ZM433.445 57.5898V43.207H436.289V48.9219H438.859V42.7422H441.758V57.7812H438.859V51.3555H436.289V57.5898H433.445Z" fill="white"/>
</svg>
