<svg width="341" height="78" viewBox="0 0 341 78" fill="none" xmlns="http://www.w3.org/2000/svg">
<path d="M9.232 53.184C14.608 53.184 16.912 58.248 16.912 62.952C16.912 67.656 14.632 72.72 9.232 72.72C3.832 72.72 1.552 67.656 1.552 62.952C1.552 58.248 3.856 53.184 9.232 53.184ZM9.232 57.336C6.808 57.336 6.232 61.176 6.232 62.928C6.232 64.68 6.808 68.568 9.232 68.568C11.656 68.568 12.232 64.68 12.232 62.928C12.232 61.176 11.656 57.336 9.232 57.336ZM24.7971 53.904H30.1251L24.9891 60.024L25.0371 60.072C25.8531 59.712 26.6211 59.52 27.5571 59.52C31.1091 59.52 33.3651 62.568 33.3651 65.88C33.3651 70.32 29.7171 72.72 25.5891 72.72C23.8371 72.72 21.8211 72.264 20.4291 71.16C18.9891 69.96 18.0051 68.064 18.0051 66.192C18.0051 63.576 19.3491 61.032 20.9091 58.992L24.7971 53.904ZM25.5651 69.024C27.2211 69.024 28.4691 67.68 28.4691 66.024C28.4691 64.392 27.2211 63.072 25.5651 63.072C23.9331 63.072 22.5891 64.392 22.5891 66.024C22.5891 67.68 23.9331 69.024 25.5651 69.024ZM38.0343 66.864C39.5943 66.864 40.8423 68.112 40.8423 69.672C40.8423 71.208 39.5943 72.48 38.0343 72.48C36.4743 72.48 35.2263 71.208 35.2263 69.672C35.2263 68.112 36.4743 66.864 38.0343 66.864ZM50.3648 53.184C55.7408 53.184 58.0448 58.248 58.0448 62.952C58.0448 67.656 55.7648 72.72 50.3648 72.72C44.9648 72.72 42.6848 67.656 42.6848 62.952C42.6848 58.248 44.9888 53.184 50.3648 53.184ZM50.3648 57.336C47.9408 57.336 47.3648 61.176 47.3648 62.928C47.3648 64.68 47.9408 68.568 50.3648 68.568C52.7888 68.568 53.3648 64.68 53.3648 62.928C53.3648 61.176 52.7888 57.336 50.3648 57.336ZM72.0979 57.888H65.8339L65.5219 59.952L67.0099 59.832C70.7059 59.544 73.4179 62.568 73.4179 66.312C73.4179 68.208 72.5779 69.984 71.0899 71.208C69.6499 72.36 67.6099 72.72 65.8099 72.72C63.7459 72.72 61.6579 72.216 59.9059 71.088L60.6019 66.648C61.9939 67.896 63.7699 68.736 65.6419 68.736C67.1299 68.736 68.5219 67.656 68.5219 66.072C68.5219 63.888 66.4339 62.976 64.5619 62.976C63.3619 62.976 62.1859 63.216 61.1059 63.72L62.6899 53.904L72.0979 53.904V57.888ZM87.9216 53.04L90.5376 54.528C88.5696 57.696 87.7776 61.728 87.7776 65.424C87.7776 68.856 88.6176 73.368 90.5376 76.272L87.9216 77.76C85.4016 74.472 84.4416 69.192 84.4416 65.136C84.4416 61.176 85.5696 56.28 87.9216 53.04ZM96.2391 53.904L99.3831 65.592H99.4311L103.223 53.904H106.967L110.519 65.592H110.567L113.975 53.904H118.871L113.087 72H108.287L105.119 61.512H105.071L101.519 72H96.7431L91.3431 53.904H96.2391ZM130.348 57.888H124.756V60.912H130.06V64.896L124.756 64.896V68.016H130.348V72L120.052 72V53.904H130.348V57.888ZM133.247 72V53.904H139.919C144.959 53.904 149.111 57.864 149.111 62.952C149.111 68.04 144.935 72 139.919 72H133.247ZM137.951 57.888V68.016H139.007C141.815 68.016 144.215 66.48 144.215 62.952C144.215 59.712 142.079 57.888 139.055 57.888H137.951ZM150.934 54.528L153.55 53.04C155.902 56.28 157.03 61.176 157.03 65.136C157.03 69.192 156.07 74.472 153.55 77.76L150.934 76.272C152.854 73.368 153.694 68.856 153.694 65.424C153.694 61.728 152.902 57.696 150.934 54.528ZM166.422 62.496H178.422V66.096H166.422V62.496ZM194.88 53.184C200.256 53.184 202.56 58.248 202.56 62.952C202.56 67.656 200.28 72.72 194.88 72.72C189.48 72.72 187.2 67.656 187.2 62.952C187.2 58.248 189.504 53.184 194.88 53.184ZM194.88 57.336C192.456 57.336 191.88 61.176 191.88 62.928C191.88 64.68 192.456 68.568 194.88 68.568C197.304 68.568 197.88 64.68 197.88 62.928C197.88 61.176 197.304 57.336 194.88 57.336ZM210.446 53.904H215.774L210.638 60.024L210.686 60.072C211.502 59.712 212.27 59.52 213.206 59.52C216.758 59.52 219.014 62.568 219.014 65.88C219.014 70.32 215.366 72.72 211.238 72.72C209.486 72.72 207.47 72.264 206.078 71.16C204.638 69.96 203.654 68.064 203.654 66.192C203.654 63.576 204.998 61.032 206.558 58.992L210.446 53.904ZM211.214 69.024C212.87 69.024 214.118 67.68 214.118 66.024C214.118 64.392 212.87 63.072 211.214 63.072C209.582 63.072 208.238 64.392 208.238 66.024C208.238 67.68 209.582 69.024 211.214 69.024ZM223.683 66.864C225.243 66.864 226.491 68.112 226.491 69.672C226.491 71.208 225.243 72.48 223.683 72.48C222.123 72.48 220.875 71.208 220.875 69.672C220.875 68.112 222.123 66.864 223.683 66.864ZM233.901 59.112H229.533C229.725 57.216 230.493 55.776 231.645 54.744C232.797 53.712 234.405 53.184 236.253 53.184C239.493 53.184 242.037 55.056 242.037 58.44C242.037 59.88 241.461 61.416 240.141 62.16C242.061 62.664 243.093 64.872 243.093 66.72C243.093 70.68 239.661 72.72 236.061 72.72C233.997 72.72 232.125 72.168 230.661 70.68C229.581 69.576 228.549 67.704 228.597 66.12H233.397C233.397 67.56 234.429 68.688 235.917 68.688C237.357 68.688 238.437 67.728 238.437 66.264C238.437 64.896 237.261 63.84 235.941 63.84C235.653 63.84 235.389 63.912 235.125 63.984V60.84H235.605C236.805 60.84 237.669 60.096 237.669 58.848C237.669 57.744 236.877 57.024 235.821 57.024C234.621 57.024 233.877 57.936 233.901 59.112ZM252.466 53.184C257.842 53.184 260.146 58.248 260.146 62.952C260.146 67.656 257.866 72.72 252.466 72.72C247.066 72.72 244.786 67.656 244.786 62.952C244.786 58.248 247.09 53.184 252.466 53.184ZM252.466 57.336C250.042 57.336 249.466 61.176 249.466 62.928C249.466 64.68 250.042 68.568 252.466 68.568C254.89 68.568 255.466 64.68 255.466 62.928C255.466 61.176 254.89 57.336 252.466 57.336ZM273.57 53.04L276.186 54.528C274.218 57.696 273.426 61.728 273.426 65.424C273.426 68.856 274.266 73.368 276.186 76.272L273.57 77.76C271.05 74.472 270.09 69.192 270.09 65.136C270.09 61.176 271.218 56.28 273.57 53.04ZM290.696 54.912L288.824 58.56C287.96 57.84 286.856 57.36 285.704 57.36C284.84 57.36 283.688 57.864 283.688 58.872C283.688 59.928 284.96 60.336 285.776 60.6L286.976 60.96C289.496 61.704 291.44 62.976 291.44 65.904C291.44 67.704 291.008 69.552 289.568 70.776C288.152 71.976 286.256 72.48 284.432 72.48C282.152 72.48 279.92 71.712 278.072 70.416L280.088 66.624C281.264 67.656 282.656 68.496 284.264 68.496C285.368 68.496 286.544 67.944 286.544 66.672C286.544 65.352 284.696 64.896 283.688 64.608C280.736 63.768 278.792 63 278.792 59.496C278.792 55.824 281.408 53.424 285.032 53.424C286.856 53.424 289.088 54 290.696 54.912ZM304.669 53.904H309.373V64.08C309.373 66.408 309.277 68.712 307.477 70.464C305.965 71.952 303.589 72.48 301.477 72.48C299.365 72.48 296.989 71.952 295.477 70.464C293.677 68.712 293.581 66.408 293.581 64.08V53.904H298.285V63.432C298.285 65.784 298.453 68.352 301.477 68.352C304.501 68.352 304.669 65.784 304.669 63.432V53.904ZM312.356 72V53.904H317.06L325.676 64.968H325.724V53.904H330.428V72H325.724L317.108 60.912H317.06V72H312.356ZM333.137 54.528L335.753 53.04C338.105 56.28 339.233 61.176 339.233 65.136C339.233 69.192 338.273 74.472 335.753 77.76L333.137 76.272C335.057 73.368 335.897 68.856 335.897 65.424C335.897 61.728 335.105 57.696 333.137 54.528Z" fill="white"/>
<path d="M9.05078 31.2734C5.18164 31.2461 1.32617 28.9492 1.33984 21.6484C1.33984 14.8809 4.41602 10.9297 9.26953 10.9297C13.084 10.9297 15.709 13.3223 16.1602 16.5352H12.6328C12.2773 15.0176 11.0742 14.0059 9.26953 14.0195C6.39844 14.0059 4.79883 16.5488 4.78516 20.7188H4.97656C5.98828 19.0098 7.88867 17.998 10.0625 18.0117C13.6172 17.998 16.3652 20.6914 16.3516 24.4375C16.3652 28.375 13.4258 31.3008 9.05078 31.2734ZM5.16797 24.5469C5.19531 26.6113 6.80859 28.3887 9.05078 28.4023C11.252 28.3887 12.8926 26.6934 12.9062 24.5195C12.8926 22.4141 11.3066 20.7188 9.10547 20.7188C6.87695 20.7188 5.19531 22.4824 5.16797 24.5469ZM39.2656 8.74219V23.1523H36.2031V22.1406H31.582V20.2812H36.2031V8.74219H39.2656ZM18.5117 17.6562C23.2832 17.6562 29.2578 17.6152 34.5625 17.082L34.7266 18.9961C32.4707 19.2969 30.1465 19.502 27.8633 19.6113V23.1797H24.8555V19.7344C22.7363 19.7891 20.6992 19.8027 18.8398 19.7891L18.5117 17.6562ZM20.2617 12.8438C20.2617 10.6016 22.7363 9.13867 26.4961 9.125C30.1738 9.13867 32.6621 10.6016 32.6758 12.8438C32.6621 15.1406 30.1738 16.5352 26.4961 16.5352C22.7363 16.5352 20.2617 15.1406 20.2617 12.8438ZM22.1211 25.9961V23.918H39.2656V29.4688H25.2109V31.0547H39.9219V33.2148H22.2305V27.4727H36.2578V25.9961H22.1211ZM23.1602 12.8438C23.1328 13.8828 24.418 14.5254 26.4961 14.5117C28.5332 14.5254 29.832 13.8828 29.832 12.8438C29.832 11.8047 28.5332 11.1348 26.4961 11.1484C24.418 11.1348 23.1328 11.8047 23.1602 12.8438ZM71.9688 27.9102V30.4531H49.3828V27.9102H71.9688ZM51.2422 13.4453V11.0117H70V13.4453H66.3906V21.3203H69.918V23.7266H51.3242V21.3203H54.7969V13.4453H51.2422ZM57.832 21.3203H63.3828V13.4453H57.832V21.3203ZM96.168 28.0469V30.5625H73.582V28.0469H83.3164V24.0273H76.2617V15.9336H90.4805V12.8711H76.207V10.4102H93.4883V18.3398H79.2969V21.5391H94.0625V24.0273H86.3242V28.0469H96.168ZM120.367 27.9375V30.4258H97.7812V27.9375H107.516V22.5508H100.27V10.6289H117.77V22.5508H110.523V27.9375H120.367ZM103.25 20.1719H114.762V13.0625H103.25V20.1719ZM130.977 13.0898C130.963 16.5762 132.918 19.9668 136.719 21.4023L135.023 23.7539C132.385 22.7148 130.498 20.6504 129.473 18.0938C128.406 20.8418 126.41 23.0156 123.566 24.1094L121.926 21.7031C125.863 20.2812 127.9 16.7949 127.914 13.0898V10.1367H130.977V13.0898ZM126.383 32.9414V25.2852H129.473V30.4805H143.227V32.9414H126.383ZM135.133 19.4336V17H139.645V14.5664H135.133V12.1055H139.645V8.74219H142.68V27.0898H139.645V19.4336H135.133Z" fill="white"/>
</svg>
