<svg width="390" height="94" viewBox="0 0 390 94" fill="none" xmlns="http://www.w3.org/2000/svg">
<path d="M0.76 85.16L10.84 59.6L12.52 60.92C18.4 65.48 25.48 69.2 33.04 69.2C36.28 69.2 41.44 67.88 41.44 63.8C41.44 59.72 37.12 59.36 34.12 58.76L27.52 57.56C14.68 55.28 3.88 47.72 3.88 33.56C3.88 12.08 23.44 0.0799961 43.12 0.0799961C53.44 0.0799961 62.92 2.59999 71.8 7.99999L62.92 31.16C57.28 27.32 50.92 24.32 43.84 24.32C40.96 24.32 36.76 25.4 36.76 29.12C36.76 32.48 40.84 32.96 43.36 33.56L50.8 35.24C64.72 38.36 74.8 45.8 74.8 61.16C74.8 82.76 55.12 93.44 35.56 93.44C24.16 93.44 10.96 90.32 0.76 85.16ZM81.1703 30.92V1.52L150.29 1.52V30.92L132.17 30.08L132.17 92L99.2903 92L99.2903 30.08L81.1703 30.92ZM152.895 1.52L190.095 1.52L200.175 25.16H201.135C202.095 22.28 202.935 19.4 204.135 16.64L210.615 1.52L247.575 1.52L216.615 53L216.615 92H184.455L184.455 53L152.895 1.52ZM256.507 92V1.52L289.387 1.52V62.96L316.987 62.96V92L256.507 92ZM327.919 92V1.52L388.759 1.52V26.24L361.039 26.24V34.88L386.359 34.88V58.4H361.039V67.28H389.719V92H327.919Z" fill="white"/>
</svg>
